<svg width="16" height="16" viewBox="0 0 16 16" fill="none" xmlns="http://www.w3.org/2000/svg">
<g clip-path="url(#clip0_188_298)">
<path d="M14.0002 1.00049C14.2655 1.00049 14.5198 1.10585 14.7074 1.29338C14.8949 1.48092 15.0002 1.73527 15.0002 2.00049V14.0005C15.0002 14.2657 14.8949 14.5201 14.7074 14.7076C14.5198 14.8951 14.2655 15.0005 14.0002 15.0005H2.00024C1.73503 15.0005 1.48067 14.8951 1.29314 14.7076C1.1056 14.5201 1.00024 14.2657 1.00024 14.0005V2.00049C1.00024 1.73527 1.1056 1.48092 1.29314 1.29338C1.48067 1.10585 1.73503 1.00049 2.00024 1.00049H14.0002ZM2.00024 0.000488281C1.46981 0.000488281 0.961103 0.211202 0.586031 0.586275C0.210958 0.961347 0.000244141 1.47006 0.000244141 2.00049L0.000244141 14.0005C0.000244141 14.5309 0.210958 15.0396 0.586031 15.4147C0.961103 15.7898 1.46981 16.0005 2.00024 16.0005H14.0002C14.5307 16.0005 15.0394 15.7898 15.4145 15.4147C15.7895 15.0396 16.0002 14.5309 16.0002 14.0005V2.00049C16.0002 1.47006 15.7895 0.961347 15.4145 0.586275C15.0394 0.211202 14.5307 0.000488281 14.0002 0.000488281L2.00024 0.000488281Z" fill="white"/>
<path d="M10.9703 4.97028C11.1102 4.83155 11.2992 4.75348 11.4962 4.75293C11.6933 4.75239 11.8826 4.82942 12.0233 4.96737C12.164 5.10533 12.2448 5.29312 12.2482 5.49015C12.2515 5.68718 12.1772 5.87761 12.0413 6.02028L8.04928 11.0103C7.98067 11.0842 7.89786 11.1435 7.80581 11.1846C7.71376 11.2258 7.61435 11.248 7.51353 11.2499C7.41271 11.2517 7.31255 11.2332 7.21904 11.1955C7.12552 11.1578 7.04058 11.1016 6.96928 11.0303L4.32428 8.38428C4.25059 8.31562 4.19149 8.23282 4.1505 8.14082C4.10951 8.04882 4.08746 7.94951 4.08569 7.8488C4.08391 7.7481 4.10244 7.64807 4.14016 7.55468C4.17788 7.46129 4.23402 7.37646 4.30524 7.30524C4.37646 7.23402 4.46129 7.17788 4.55468 7.14016C4.64807 7.10244 4.7481 7.08391 4.8488 7.08569C4.94951 7.08747 5.04882 7.10951 5.14082 7.1505C5.23282 7.19149 5.31562 7.25059 5.38428 7.32428L7.47828 9.41728L10.9513 4.99228C10.9575 4.98453 10.9642 4.97718 10.9713 4.97028H10.9703Z" fill="white"/>
</g>
<defs>
<clipPath id="clip0_188_298">
<rect width="16" height="16" fill="white" transform="translate(0.000244141 0.000488281)"/>
</clipPath>
</defs>
</svg>
