<svg width="44" height="44" viewBox="0 0 44 44" fill="none" xmlns="http://www.w3.org/2000/svg">
<path d="M36.5265 8.63879C36.2163 8.38164 35.8422 8.21323 35.444 8.15142C35.0458 8.08962 34.6383 8.13671 34.2647 8.28772L8.48538 18.6947C8.0688 18.8659 7.71413 19.1597 7.46847 19.5372C7.22281 19.9147 7.09777 20.358 7.10994 20.8082C7.12212 21.2584 7.27094 21.6943 7.53665 22.0579C7.80235 22.4216 8.17238 22.6958 8.5976 22.8442L14.1601 24.7751L17.1744 34.7404C17.1802 34.7605 17.1989 34.7735 17.2075 34.7922C17.2385 34.8717 17.2839 34.9448 17.3413 35.008C17.4285 35.1054 17.5411 35.1767 17.6665 35.2138C17.6809 35.2195 17.6909 35.2325 17.7053 35.2354H17.714L17.7183 35.2368C17.8296 35.2607 17.9453 35.2548 18.0535 35.2195C18.065 35.2166 18.0765 35.2166 18.0895 35.2123C18.1934 35.1759 18.2875 35.1158 18.3643 35.0368C18.3729 35.0267 18.3873 35.0253 18.396 35.0167L22.7311 30.2311L29.0576 35.1303C29.4418 35.431 29.9151 35.5936 30.4029 35.5936C31.459 35.5936 32.3698 34.8541 32.587 33.8224L37.2804 10.7754C37.3601 10.3842 37.332 9.97866 37.1992 9.60212C37.0664 9.22557 36.8339 8.89213 36.5265 8.63735V8.63879ZM18.747 26.6672L17.7298 31.6124L15.6075 24.5939L26.1325 19.112L18.9427 26.3032C18.8431 26.4027 18.7751 26.5293 18.747 26.6672V26.6672ZM31.177 33.5332C31.15 33.6637 31.0899 33.785 31.0024 33.8856C30.915 33.9861 30.8032 34.0625 30.6777 34.1073C30.5553 34.1544 30.4227 34.1689 30.2931 34.1492C30.1634 34.1295 30.0411 34.0764 29.9382 33.9951L23.0851 28.6873C22.9418 28.5767 22.7621 28.5242 22.5819 28.5402C22.4016 28.5562 22.234 28.6395 22.1124 28.7736L19.0952 32.0987L20.111 27.1679L30.4547 16.8228C30.5758 16.7013 30.6495 16.5404 30.6625 16.3693C30.6755 16.1982 30.6269 16.0281 30.5255 15.8897C30.424 15.7513 30.2765 15.6537 30.1094 15.6145C29.9424 15.5753 29.7668 15.5972 29.6144 15.6761L14.7039 23.4428L9.0681 21.4831C8.91867 21.4338 8.78834 21.3391 8.69524 21.2122C8.60215 21.0853 8.55092 20.9326 8.54868 20.7752C8.54151 20.6165 8.58393 20.4594 8.67004 20.3259C8.75615 20.1923 8.88169 20.0889 9.02925 20.0299L34.8042 9.62295C34.9363 9.56683 35.0814 9.54868 35.2233 9.57054C35.3651 9.5924 35.498 9.6534 35.6071 9.74668C35.7155 9.83443 35.7975 9.9506 35.8437 10.0822C35.8899 10.2138 35.8987 10.3557 35.869 10.492L31.177 33.5347V33.5332Z" fill="white"/>
</svg>
