<svg width="44" height="44" viewBox="0 0 44 44" fill="none" xmlns="http://www.w3.org/2000/svg">
<path d="M36.5268 8.63882C36.2165 8.38167 35.8424 8.21326 35.4442 8.15145C35.046 8.08965 34.6385 8.13674 34.2649 8.28775L8.48562 18.6947C8.06904 18.8659 7.71438 19.1598 7.46872 19.5372C7.22305 19.9147 7.09801 20.358 7.11019 20.8082C7.12236 21.2584 7.27118 21.6943 7.53689 22.058C7.8026 22.4216 8.17262 22.6959 8.59785 22.8443L14.1603 24.7752L17.1746 34.7404C17.1804 34.7606 17.1991 34.7735 17.2077 34.7922C17.2388 34.8717 17.2841 34.9449 17.3415 35.008C17.4288 35.1055 17.5413 35.1767 17.6667 35.2138C17.6811 35.2196 17.6912 35.2325 17.7056 35.2354H17.7142L17.7185 35.2368C17.8298 35.2608 17.9455 35.2548 18.0538 35.2196C18.0653 35.2167 18.0768 35.2167 18.0897 35.2124C18.1937 35.1759 18.2877 35.1158 18.3645 35.0368C18.3732 35.0268 18.3876 35.0253 18.3962 35.0167L22.7314 30.2312L29.0578 35.1304C29.442 35.4311 29.9154 35.5937 30.4031 35.5937C31.4592 35.5937 32.37 34.8541 32.5873 33.8225L37.2807 10.7755C37.3603 10.3842 37.3322 9.97869 37.1994 9.60215C37.0667 9.2256 36.8342 8.89216 36.5268 8.63739V8.63882ZM18.7473 26.6672L17.73 31.6124L15.6078 24.5939L26.1327 19.112L18.943 26.3032C18.8434 26.4027 18.7753 26.5293 18.7473 26.6672V26.6672ZM31.1772 33.5333C31.1502 33.6637 31.0901 33.7851 31.0027 33.8856C30.9152 33.9861 30.8034 34.0625 30.678 34.1073C30.5555 34.1545 30.423 34.1689 30.2933 34.1492C30.1636 34.1295 30.0413 34.0764 29.9384 33.9951L23.0853 28.6873C22.9421 28.5767 22.7624 28.5242 22.5821 28.5402C22.4018 28.5562 22.2342 28.6396 22.1127 28.7737L19.0955 32.0988L20.1113 27.1679L30.4549 16.8228C30.5761 16.7013 30.6498 16.5405 30.6628 16.3694C30.6757 16.1983 30.6271 16.0282 30.5257 15.8898C30.4243 15.7513 30.2767 15.6537 30.1097 15.6146C29.9426 15.5754 29.7671 15.5972 29.6147 15.6761L14.7042 23.4428L9.06834 21.4832C8.91891 21.4338 8.78858 21.3391 8.69549 21.2122C8.60239 21.0854 8.55116 20.9326 8.54893 20.7753C8.54176 20.6165 8.58417 20.4595 8.67028 20.3259C8.7564 20.1924 8.88194 20.0889 9.02949 20.03L34.8045 9.62298C34.9366 9.56686 35.0817 9.54871 35.2235 9.57057C35.3654 9.59243 35.4983 9.65343 35.6073 9.74671C35.7158 9.83447 35.7977 9.95063 35.8439 10.0822C35.8902 10.2139 35.8989 10.3557 35.8692 10.492L31.1772 33.5347V33.5333Z" fill="#BA8342"/>
</svg>
